<svg xmlns="http://www.w3.org/2000/svg" xmlns:xlink="http://www.w3.org/1999/xlink" viewBox="0 0 1080 250" preserveAspectRatio="xMidYMid" style="display: block; shape-rendering: auto; background: rgba(255, 255, 255, 0);" width="1080" height="250"><style type="text/css">
  .ld-text text {
    text-anchor: middle;
    dominant-baseline: middle;
    font-size: 240px;
    opacity: 0;
    user-select: none;
    pointer-events: none;
  }
</style>
<g style="transform-origin:540px 125px;transform:scale(1)" class="ld-text">
<g transform="translate(540,125)">
  <g transform="scale(3.0000) translate(0,0)"><g class="path" style="opacity: 1; transform-origin: -45.24px -1.23px; transform: matrix3d(1, 0, 0, 0, 0, 1, 0, 0, 0, 0, 1, 0, 0, 0, 0, 1); animation: 1s linear -0.528s infinite normal forwards running animate-hakpraoio3o; transform-box: view-box;"><path d="M11.48 44.42L32.97 44.42Q32.97 42.70 31.72 42.47L31.72 42.47Q31.33 42.39 30.94 42.39L30.94 42.39L25.63 42.39L25.63-0.42L30.16-0.42Q36.48-0.42 38.59 7.23L38.59 7.23Q38.59 7.54 38.67 7.70L38.67 7.70L39.92 12.94L42.11 12.94L41.72-2.46L3.13-2.46L2.73 12.94L4.92 12.94L6.17 7.70Q8.67 0.04 14.69-0.42L14.69-0.42L18.91-0.42L18.91 42.39L11.48 42.39L11.48 44.42" style="fill: rgb(35, 31, 32);" transform="translate(-67.660,-22.211)"></path></g><g class="path" style="opacity: 1; transform-origin: -6.41px 5.37px; transform: matrix3d(1, 0, 0, 0, 0, 1, 0, 0, 0, 0, 1, 0, 0, 0, 0, 1); animation: 1s linear -0.396s infinite normal forwards running animate-hakpraoio3o; transform-box: view-box;"><path d="M64.69 42.47L64.69 42.47L59.06 42.47L59.06 26.92Q59.06 19.81 63.44 15.51L63.44 15.51Q65.16 13.87 66.33 13.79L66.33 13.79Q67.66 13.79 68.75 15.75L68.75 15.75Q70 17.94 71.09 18.25L71.09 18.25Q71.56 18.40 72.03 18.40L72.03 18.40Q74.38 18.40 75 16.14L75 16.14Q75.16 15.67 75.16 15.20L75.16 15.20Q75.16 11.69 71.56 10.90L71.56 10.90Q70.78 10.75 70.08 10.75L70.08 10.75Q65.39 10.75 61.72 14.73L61.72 14.73Q60 16.61 58.98 18.95L58.98 18.95L58.67 11.22L47.34 11.22L47.34 13.17L53.20 13.17L53.20 37.78Q53.20 41.37 51.17 42.08L51.17 42.08Q50 42.47 47.34 42.47L47.34 42.47L47.34 44.42L66.64 44.42Q66.64 42.70 65.47 42.54L65.47 42.54Q65.16 42.47 64.69 42.47" style="fill: rgb(35, 31, 32);" transform="translate(-67.660,-22.211)"></path></g><g class="path" style="opacity: 1; transform-origin: 19.21px 5.61px; transform: matrix3d(1, 0, 0, 0, 0, 1, 0, 0, 0, 0, 1, 0, 0, 0, 0, 1); animation: 1s linear -0.264s infinite normal forwards running animate-hakpraoio3o; transform-box: view-box;"><path d="M93.91 42.47L93.91 42.47L90 42.47L90 11.22L77.89 11.22L77.89 13.17L84.14 13.17L84.14 37.78Q84.14 41.37 81.72 42.15L81.72 42.15Q80.55 42.47 77.89 42.47L77.89 42.47L77.89 44.42L95.86 44.42Q95.86 42.70 94.69 42.54L94.69 42.54Q94.30 42.47 93.91 42.47" style="fill: rgb(35, 31, 32);" transform="translate(-67.660,-22.211)"></path></g><g class="path" style="opacity: 1; transform-origin: 19.02px -22.4px; transform: matrix3d(1, 0, 0, 0, 0, 1, 0, 0, 0, 0, 1, 0, 0, 0, 0, 1); animation: 1s linear -0.132s infinite normal forwards running animate-hakpraoio3o; transform-box: view-box;"><path d="M90.94-0.19L90.94-0.19Q90.94-2.92 88.52-4.10L88.52-4.10Q87.58-4.49 86.72-4.49L86.72-4.49Q83.98-4.49 82.81-1.99L82.81-1.99Q82.42-1.13 82.42-0.19L82.42-0.19Q82.42 2.70 85 3.79L85 3.79Q85.86 4.11 86.72 4.11L86.72 4.11Q89.45 4.11 90.55 1.61L90.55 1.61Q90.94 0.75 90.94-0.19" style="fill: rgb(35, 31, 32);" transform="translate(-67.660,-22.211)"></path></g><g class="path" style="opacity: 1; transform-origin: 51.48px 12.64px; transform: matrix3d(1, 0, 0, 0, 0, 1, 0, 0, 0, 0, 1, 0, 0, 0, 0, 1); animation: 1s linear 0s infinite normal forwards running animate-hakpraoio3o; transform-box: view-box;"><path d="M117.42 57.31L111.95 57.31L111.95 41.14Q116.25 44.89 121.88 45.20L121.88 45.20Q128.83 45.20 133.52 39.97L133.52 39.97Q138.05 34.89 138.05 27.08L138.05 27.08Q138.05 18.17 133.13 13.56L133.13 13.56Q129.69 10.44 124.77 10.44L124.77 10.44Q117.19 10.44 113.44 16.45L113.44 16.45Q112.50 18.01 111.88 19.73L111.88 19.73L111.48 11.22L100.23 11.22L100.23 13.17L106.09 13.17L106.09 52.62Q106.09 56.22 104.06 56.92L104.06 56.92Q102.89 57.31 100.23 57.31L100.23 57.31L100.23 59.26L119.38 59.26Q119.38 57.55 118.20 57.39L118.20 57.39Q117.89 57.31 117.42 57.31L117.42 57.31 zM122.27 13.56L122.27 13.56Q129.06 13.56 130.86 22.08L130.86 22.08Q131.41 24.65 131.41 27.86L131.41 27.86Q131.41 39.34 125.23 42.39L125.23 42.39Q123.44 43.25 121.33 43.25L121.33 43.25Q115.31 43.25 113.05 36.92L113.05 36.92Q111.88 33.72 111.88 29.34L111.88 29.34Q111.88 19.19 117.11 15.28L117.11 15.28Q119.45 13.56 122.27 13.56" style="fill: rgb(35, 31, 32);" transform="translate(-67.660,-22.211)"></path></g></g><text dy="0.35em" fill="#231f20" font-family="Abhaya Libre" font-size="240">Trip</text>
</g>
</g><style type="text/css">@keyframes animate-hakpraoio3o { 0.00% {animation-timing-function: cubic-bezier(0.67,0.65,0.34,0.32);transform: translate(0.00px,0.00px) rotate(0.00deg) scale(1.00, 1.00) skew(0deg, 0.00deg) ;opacity: 1.00;}4.00% {animation-timing-function: cubic-bezier(0.33,0.34,0.66,0.68);transform: translate(0.00px,0.00px) rotate(0.00deg) scale(0.62, 1.00) ;}10.00% {transform: translate(0.00px,0.00px) rotate(0.00deg) scale(0.07, 1.00) ;}12.00% {transform: translate(0.00px,0.00px) rotate(180.00deg) scale(0.09, -1.00) ;}14.00% {animation-timing-function: cubic-bezier(0.19,0.57,0.36,1.00);transform: translate(0.00px,0.00px) rotate(180.00deg) scale(0.24, -1.00) ;}50.00% {animation-timing-function: cubic-bezier(0.67,0.65,0.34,0.32);transform: translate(0.00px,0.00px) rotate(180.00deg) scale(1.00, -1.00) ;}54.00% {animation-timing-function: cubic-bezier(0.33,0.34,0.66,0.68);transform: translate(0.00px,0.00px) rotate(180.00deg) scale(0.62, -1.00) ;}60.00% {transform: translate(0.00px,0.00px) rotate(180.00deg) scale(0.07, -1.00) ;}62.00% {transform: translate(0.00px,0.00px) rotate(0.00deg) scale(0.09, 1.00) ;}64.00% {animation-timing-function: cubic-bezier(0.19,0.54,0.38,1.00);transform: translate(0.00px,0.00px) rotate(0.00deg) scale(0.24, 1.00) ;}100.00% {animation-timing-function: cubic-bezier(0.19,0.54,0.38,1.00);transform: translate(0.00px,0.00px) rotate(0.00deg) scale(1.00, 1.00) ;} }</style><!-- [ldio] generated by https://loading.io --></svg>