<svg xmlns="http://www.w3.org/2000/svg" xmlns:xlink="http://www.w3.org/1999/xlink" viewBox="0 0 1080 250" preserveAspectRatio="xMidYMid" style="display: block; shape-rendering: auto; background: rgba(255, 255, 255, 0);" width="1080" height="250"><style type="text/css">
  .ld-text text {
    text-anchor: middle;
    dominant-baseline: middle;
    font-size: 240px;
    opacity: 0;
    user-select: none;
    pointer-events: none;
  }
</style>
<g style="transform-origin:540px 125px;transform:scale(1)" class="ld-text">
<g transform="translate(540,125)">
  <g transform="scale(3.0000) translate(0,0)"><g class="path" style="opacity: 1; transform-origin: -79.3px -4.23px; transform: matrix3d(1, 0, 0, 0, 0, 1, 0, 0, 0, 0, 1, 0, 0, 0, 0, 1); animation: 1s linear -0.55s infinite normal forwards running animate-hakpraoio3o; transform-box: view-box;"><path d="M11.48 38.42L32.97 38.42Q32.97 36.70 31.72 36.47L31.72 36.47Q31.33 36.39 30.94 36.39L30.94 36.39L25.63 36.39L25.63-6.42L30.16-6.42Q36.48-6.42 38.59 1.23L38.59 1.23Q38.59 1.54 38.67 1.70L38.67 1.70L39.92 6.94L42.11 6.94L41.72-8.46L3.13-8.46L2.73 6.94L4.92 6.94L6.17 1.70Q8.67-5.96 14.69-6.42L14.69-6.42L18.91-6.42L18.91 36.39L11.48 36.39L11.48 38.42" style="fill: rgb(255, 201, 7);" transform="translate(-101.720,-19.212)"></path></g><g class="path" style="opacity: 1; transform-origin: -40.47px 2.37px; transform: matrix3d(1, 0, 0, 0, 0, 1, 0, 0, 0, 0, 1, 0, 0, 0, 0, 1); animation: 1s linear -0.44s infinite normal forwards running animate-hakpraoio3o; transform-box: view-box;"><path d="M64.69 36.47L64.69 36.47L59.06 36.47L59.06 20.92Q59.06 13.81 63.44 9.51L63.44 9.51Q65.16 7.87 66.33 7.79L66.33 7.79Q67.66 7.79 68.75 9.75L68.75 9.75Q70 11.94 71.09 12.25L71.09 12.25Q71.56 12.40 72.03 12.40L72.03 12.40Q74.38 12.40 75 10.14L75 10.14Q75.16 9.67 75.16 9.20L75.16 9.20Q75.16 5.69 71.56 4.90L71.56 4.90Q70.78 4.75 70.08 4.75L70.08 4.75Q65.39 4.75 61.72 8.73L61.72 8.73Q60 10.61 58.98 12.95L58.98 12.95L58.67 5.22L47.34 5.22L47.34 7.17L53.20 7.17L53.20 31.78Q53.20 35.37 51.17 36.08L51.17 36.08Q50 36.47 47.34 36.47L47.34 36.47L47.34 38.42L66.64 38.42Q66.64 36.70 65.47 36.54L65.47 36.54Q65.16 36.47 64.69 36.47" style="fill: rgb(46, 157, 247);" transform="translate(-101.720,-19.212)"></path></g><g class="path" style="opacity: 1; transform-origin: -6.18px 2.61px; transform: matrix3d(1, 0, 0, 0, 0, 1, 0, 0, 0, 0, 1, 0, 0, 0, 0, 1); animation: 1s linear -0.33s infinite normal forwards running animate-hakpraoio3o; transform-box: view-box;"><path d="M106.09 39.20L106.09 39.20Q112.11 39.20 112.73 31.94L112.73 31.94Q112.81 31.47 112.81 31.08L112.81 31.08L110.78 31Q110.23 36.70 107.73 36.78L107.73 36.78Q105.70 36.62 105.63 32.72L105.63 32.72L105.63 16.23Q105.63 5.06 94.45 4.44L94.45 4.44Q93.75 4.44 93.05 4.44L93.05 4.44Q84.30 4.44 81.33 8.50L81.33 8.50Q80.39 9.83 80.39 11.15L80.39 11.15Q80.39 13.58 82.66 13.97L82.66 13.97Q83.05 14.04 83.44 14.04L83.44 14.04Q85.23 14.04 86.09 11.78L86.09 11.78Q87.19 8.89 87.58 8.34L87.58 8.34Q89.06 6.39 92.19 6.39L92.19 6.39Q99.53 6.86 99.77 14.44L99.77 14.44L99.77 19.36Q81.41 19.36 78.75 27.01L78.75 27.01Q78.28 28.50 78.28 30.22L78.28 30.22Q78.28 36.15 83.52 38.34L83.52 38.34Q85.63 39.20 87.97 39.20L87.97 39.20Q93.67 39.20 97.58 35.29L97.58 35.29Q98.98 33.81 99.69 32.17L99.69 32.17Q100.63 39.12 106.09 39.20 zM90.55 36.08L90.55 36.08Q85.78 36.08 84.69 31.31L84.69 31.31Q84.45 30.22 84.45 28.89L84.45 28.89Q84.45 23.65 90.47 22.25L90.47 22.25Q93.67 21.54 99.77 21.47L99.77 21.47L99.77 27.72Q98.59 33.11 94.06 35.29L94.06 35.29Q92.27 36.08 90.55 36.08" style="fill: rgb(35, 31, 32);" transform="translate(-101.720,-19.212)"></path></g><g class="path" style="opacity: 1; transform-origin: 29.61px 2.8px; transform: matrix3d(1, 0, 0, 0, 0, 1, 0, 0, 0, 0, 1, 0, 0, 0, 0, 1); animation: 1s linear -0.22s infinite normal forwards running animate-hakpraoio3o; transform-box: view-box;"><path d="M123.13 7.17L128.59 7.17L128.59 5.22L113.44 5.22L113.44 7.17L116.95 7.17L126.48 33.34Q128.05 37.72 129.92 38.42L129.92 38.42Q130.86 38.81 132.27 38.81L132.27 38.81L133.28 38.81L144.30 9.90Q145.23 7.48 146.56 7.25L146.56 7.25Q146.95 7.17 147.27 7.17L147.27 7.17Q148.98 7.17 149.14 6L149.14 6Q149.22 5.61 149.22 5.22L149.22 5.22L137.19 5.22L137.19 7.17L143.05 7.17L133.13 33.81L123.13 7.17" style="fill: rgb(255, 201, 7);" transform="translate(-101.720,-19.212)"></path></g><g class="path" style="opacity: 1; transform-origin: 66.06px 2.61px; transform: matrix3d(1, 0, 0, 0, 0, 1, 0, 0, 0, 0, 1, 0, 0, 0, 0, 1); animation: 1s linear -0.11s infinite normal forwards running animate-hakpraoio3o; transform-box: view-box;"><path d="M168.91 6.39L168.91 6.39Q174.38 6.39 176.17 11L176.17 11Q176.80 12.48 176.80 14.20L176.80 14.20Q176.80 18.11 173.05 18.97L173.05 18.97Q171.09 19.36 167.50 19.28L167.50 19.28L159.22 19.04Q159.61 10.06 165.08 7.33L165.08 7.33Q166.88 6.39 168.91 6.39 zM182.50 30.92L182.50 30.92L180.55 30.22Q177.81 36.15 171.72 36.94L171.72 36.94Q170.94 37.01 170.23 37.01L170.23 37.01Q162.03 37.01 159.92 27.25L159.92 27.25Q159.30 24.51 159.22 21.23L159.22 21.23L168.59 21.39Q178.13 21.54 180.86 19.59L180.86 19.59Q182.97 18.03 182.97 15.14L182.97 15.14Q182.97 9.83 177.58 6.70L177.58 6.70Q173.75 4.44 168.75 4.44L168.75 4.44Q158.98 4.44 154.77 12.56L154.77 12.56Q152.58 16.78 152.58 22.09L152.58 22.09Q152.58 31.78 159.53 36.47L159.53 36.47Q163.67 39.20 168.98 39.20L168.98 39.20Q177.42 39.20 181.41 33.11L181.41 33.11Q182.03 32.01 182.50 30.92" style="fill: rgb(46, 157, 247);" transform="translate(-101.720,-19.212)"></path></g><g class="path" style="opacity: 1; transform-origin: 95.5px -6.18px; transform: matrix3d(1, 0, 0, 0, 0, 1, 0, 0, 0, 0, 1, 0, 0, 0, 0, 1); animation: 1s linear 0s infinite normal forwards running animate-hakpraoio3o; transform-box: view-box;"><path d="M204.22 36.47L204.22 36.47L200 36.47L200-12.36L188.28-12.36L188.28-10.41L194.14-10.41L194.14 31.78Q194.14 35.37 192.11 36.08L192.11 36.08Q190.94 36.47 188.28 36.47L188.28 36.47L188.28 38.42L206.17 38.42Q206.17 36.70 205 36.54L205 36.54Q204.69 36.47 204.22 36.47" style="fill: rgb(35, 31, 32);" transform="translate(-101.720,-19.212)"></path></g></g><text dy="0.35em" fill="#231f20" font-family="Abhaya Libre" font-size="240">Travel</text>
</g>
</g><style type="text/css">@keyframes animate-hakpraoio3o { 0.00% {animation-timing-function: cubic-bezier(0.67,0.65,0.34,0.32);transform: translate(0.00px,0.00px) rotate(0.00deg) scale(1.00, 1.00) skew(0deg, 0.00deg) ;opacity: 1.00;}4.00% {animation-timing-function: cubic-bezier(0.33,0.34,0.66,0.68);transform: translate(0.00px,0.00px) rotate(0.00deg) scale(0.62, 1.00) ;}10.00% {transform: translate(0.00px,0.00px) rotate(0.00deg) scale(0.07, 1.00) ;}12.00% {transform: translate(0.00px,0.00px) rotate(180.00deg) scale(0.09, -1.00) ;}14.00% {animation-timing-function: cubic-bezier(0.19,0.57,0.36,1.00);transform: translate(0.00px,0.00px) rotate(180.00deg) scale(0.24, -1.00) ;}50.00% {animation-timing-function: cubic-bezier(0.67,0.65,0.34,0.32);transform: translate(0.00px,0.00px) rotate(180.00deg) scale(1.00, -1.00) ;}54.00% {animation-timing-function: cubic-bezier(0.33,0.34,0.66,0.68);transform: translate(0.00px,0.00px) rotate(180.00deg) scale(0.62, -1.00) ;}60.00% {transform: translate(0.00px,0.00px) rotate(180.00deg) scale(0.07, -1.00) ;}62.00% {transform: translate(0.00px,0.00px) rotate(0.00deg) scale(0.09, 1.00) ;}64.00% {animation-timing-function: cubic-bezier(0.19,0.54,0.38,1.00);transform: translate(0.00px,0.00px) rotate(0.00deg) scale(0.24, 1.00) ;}100.00% {animation-timing-function: cubic-bezier(0.19,0.54,0.38,1.00);transform: translate(0.00px,0.00px) rotate(0.00deg) scale(1.00, 1.00) ;} }</style><!-- [ldio] generated by https://loading.io --></svg>