<svg xmlns="http://www.w3.org/2000/svg" xmlns:xlink="http://www.w3.org/1999/xlink" viewBox="0 0 1080 250" preserveAspectRatio="xMidYMid" width="1080" height="250" style="display:block;shape-rendering:auto;background-position-x:0%;background-position-y:0%;background-size:auto;background-origin:padding-box;background-clip:border-box;background:scroll rgba(0, 0, 0, 0) none  repeat;width:1080px;height:250px;;animation:none"><style type="text/css">.ld-text text {
    text-anchor: middle;
    dominant-baseline: middle;
    font-size: 80px;
    opacity: 0;
    user-select: none;
    pointer-events: none;
  }</style>


<g class="ld-text" style="transform-origin:540px 125px;transform:matrix(1, 0, 0, 1, 0, 0);;animation:none"><g transform="matrix(1,0,0,1,540,125)" style="transform:matrix(1, 0, 0, 1, 540, 125);;animation:none"><g transform="matrix(1,0,0,1,0,0)" style="transform:matrix(1, 0, 0, 1, 0, 0);;animation:none"><g class="path" style="animation-duration:1s;animation-timing-function:linear;animation-delay:-0.609231s;animation-iteration-count:infinite;animation-direction:normal;animation-fill-mode:forwards;animation-play-state:paused;animation-name:animate-0n10psjolbbk;animation-timeline:auto;animation-range-start:normal;animation-range-end:normal;transform-box:view-box;transform-origin:-197.85px -3.16px;transform:matrix(1, 0, 0, 1, 0, 0);;animation:none"><path d="M11.48 40.56L32.97 40.56Q32.97 38.84 31.72 38.61L31.72 38.61Q31.33 38.53 30.94 38.53L30.94 38.53L25.63 38.53L25.63-4.28L30.16-4.28Q36.48-4.28 38.59 3.37L38.59 3.37Q38.59 3.68 38.67 3.84L38.67 3.84L39.92 9.08L42.11 9.08L41.72-6.32L3.13-6.32L2.73 9.08L4.92 9.08L6.17 3.84Q8.67-3.82 14.69-4.28L14.69-4.28L18.91-4.28L18.91 38.53L11.48 38.53L11.48 40.56" transform="matrix(1,0,0,1,-220.27499389648438,-20.27899932861328)" style="transform:matrix(1, 0, 0, 1, -220.275, -20.279);;animation:none"></path></g>
<g class="path" style="animation-duration:1s;animation-timing-function:linear;animation-delay:-0.558462s;animation-iteration-count:infinite;animation-direction:normal;animation-fill-mode:forwards;animation-play-state:paused;animation-name:animate-0n10psjolbbk;animation-timeline:auto;animation-range-start:normal;animation-range-end:normal;transform-box:view-box;transform-origin:-159.02px 3.45px;transform:matrix(1, 0, 0, 1, 0, 0);;animation:none"><path d="M64.69 38.61L64.69 38.61L59.06 38.61L59.06 23.06Q59.06 15.95 63.44 11.65L63.44 11.65Q65.16 10.01 66.33 9.93L66.33 9.93Q67.66 9.93 68.75 11.89L68.75 11.89Q70 14.08 71.09 14.39L71.09 14.39Q71.56 14.54 72.03 14.54L72.03 14.54Q74.38 14.54 75 12.28L75 12.28Q75.16 11.81 75.16 11.34L75.16 11.34Q75.16 7.83 71.56 7.04L71.56 7.04Q70.78 6.89 70.08 6.89L70.08 6.89Q65.39 6.89 61.72 10.87L61.72 10.87Q60 12.75 58.98 15.09L58.98 15.09L58.67 7.36L47.34 7.36L47.34 9.31L53.20 9.31L53.20 33.92Q53.20 37.51 51.17 38.22L51.17 38.22Q50 38.61 47.34 38.61L47.34 38.61L47.34 40.56L66.64 40.56Q66.64 38.84 65.47 38.68L65.47 38.68Q65.16 38.61 64.69 38.61" transform="matrix(1,0,0,1,-220.27499389648438,-20.27899932861328)" style="transform:matrix(1, 0, 0, 1, -220.275, -20.279);;animation:none"></path></g>
<g class="path" style="animation-duration:1s;animation-timing-function:linear;animation-delay:-0.507692s;animation-iteration-count:infinite;animation-direction:normal;animation-fill-mode:forwards;animation-play-state:paused;animation-name:animate-0n10psjolbbk;animation-timeline:auto;animation-range-start:normal;animation-range-end:normal;transform-box:view-box;transform-origin:-133.4px 3.68px;transform:matrix(1, 0, 0, 1, 0, 0);;animation:none"><path d="M93.91 38.61L93.91 38.61L90 38.61L90 7.36L77.89 7.36L77.89 9.31L84.14 9.31L84.14 33.92Q84.14 37.51 81.72 38.29L81.72 38.29Q80.55 38.61 77.89 38.61L77.89 38.61L77.89 40.56L95.86 40.56Q95.86 38.84 94.69 38.68L94.69 38.68Q94.30 38.61 93.91 38.61" transform="matrix(1,0,0,1,-220.27499389648438,-20.27899932861328)" style="transform:matrix(1, 0, 0, 1, -220.275, -20.279);;animation:none"></path></g>
<g class="path" style="animation-duration:1s;animation-timing-function:linear;animation-delay:-0.456923s;animation-iteration-count:infinite;animation-direction:normal;animation-fill-mode:forwards;animation-play-state:paused;animation-name:animate-0n10psjolbbk;animation-timeline:auto;animation-range-start:normal;animation-range-end:normal;transform-box:view-box;transform-origin:-133.59px -24.33px;transform:matrix(1, 0, 0, 1, 0, 0);;animation:none"><path d="M90.94-4.05L90.94-4.05Q90.94-6.78 88.52-7.96L88.52-7.96Q87.58-8.35 86.72-8.35L86.72-8.35Q83.98-8.35 82.81-5.85L82.81-5.85Q82.42-4.99 82.42-4.05L82.42-4.05Q82.42-1.16 85-0.07L85-0.07Q85.86 0.25 86.72 0.25L86.72 0.25Q89.45 0.25 90.55-2.25L90.55-2.25Q90.94-3.11 90.94-4.05" transform="matrix(1,0,0,1,-220.27499389648438,-20.27899932861328)" style="transform:matrix(1, 0, 0, 1, -220.275, -20.279);;animation:none"></path></g>
<g class="path" style="animation-duration:1s;animation-timing-function:linear;animation-delay:-0.406154s;animation-iteration-count:infinite;animation-direction:normal;animation-fill-mode:forwards;animation-play-state:paused;animation-name:animate-0n10psjolbbk;animation-timeline:auto;animation-range-start:normal;animation-range-end:normal;transform-box:view-box;transform-origin:-101.13px 10.71px;transform:matrix(1, 0, 0, 1, 0, 0);;animation:none"><path d="M117.42 53.45L111.95 53.45L111.95 37.28Q116.25 41.03 121.88 41.34L121.88 41.34Q128.83 41.34 133.52 36.11L133.52 36.11Q138.05 31.03 138.05 23.22L138.05 23.22Q138.05 14.31 133.13 9.70L133.13 9.70Q129.69 6.58 124.77 6.58L124.77 6.58Q117.19 6.58 113.44 12.59L113.44 12.59Q112.50 14.15 111.88 15.87L111.88 15.87L111.48 7.36L100.23 7.36L100.23 9.31L106.09 9.31L106.09 48.76Q106.09 52.36 104.06 53.06L104.06 53.06Q102.89 53.45 100.23 53.45L100.23 53.45L100.23 55.40L119.38 55.40Q119.38 53.69 118.20 53.53L118.20 53.53Q117.89 53.45 117.42 53.45L117.42 53.45 zM122.27 9.70L122.27 9.70Q129.06 9.70 130.86 18.22L130.86 18.22Q131.41 20.79 131.41 24L131.41 24Q131.41 35.48 125.23 38.53L125.23 38.53Q123.44 39.39 121.33 39.39L121.33 39.39Q115.31 39.39 113.05 33.06L113.05 33.06Q111.88 29.86 111.88 25.48L111.88 25.48Q111.88 15.33 117.11 11.42L117.11 11.42Q119.45 9.70 122.27 9.70" transform="matrix(1,0,0,1,-220.27499389648438,-20.27899932861328)" style="transform:matrix(1, 0, 0, 1, -220.275, -20.279);;animation:none"></path></g>
<g class="path" style="animation-duration:1s;animation-timing-function:linear;animation-delay:-0.355385s;animation-iteration-count:infinite;animation-direction:normal;animation-fill-mode:forwards;animation-play-state:paused;animation-name:animate-0n10psjolbbk;animation-timeline:auto;animation-range-start:normal;animation-range-end:normal;transform-box:view-box;transform-origin:-50.58px -0.42px;transform:matrix(1, 0, 0, 1, 0, 0);;animation:none"><path d="M157.97 7.36L157.97 9.31L163.44 9.31L163.44 31.34Q163.98 41.11 172.42 41.42L172.42 41.42Q179.61 41.42 181.41 32.59L181.41 32.59Q181.41 32.51 181.41 32.43L181.41 32.43L179.30 32.04Q177.34 38.53 173.59 39.08L173.59 39.08Q169.38 38.92 169.30 33.06L169.30 33.06L169.30 9.31L181.41 9.31L181.41 7.36L169.30 7.36L169.30-1.71L163.44-0.07L163.44 7.36L157.97 7.36" transform="matrix(1,0,0,1,-220.27499389648438,-20.27899932861328)" style="transform:matrix(1, 0, 0, 1, -220.275, -20.279);;animation:none"></path></g>
<g class="path" style="animation-duration:1s;animation-timing-function:linear;animation-delay:-0.304615s;animation-iteration-count:infinite;animation-direction:normal;animation-fill-mode:forwards;animation-play-state:paused;animation-name:animate-0n10psjolbbk;animation-timeline:auto;animation-range-start:normal;animation-range-end:normal;transform-box:view-box;transform-origin:-18.44px 3.68px;transform:matrix(1, 0, 0, 1, 0, 0);;animation:none"><path d="M191.56 23.92L191.56 23.92Q191.56 11.81 198.20 9.15L198.20 9.15Q199.92 8.53 201.80 8.53L201.80 8.53Q210.47 8.53 211.88 19.47L211.88 19.47Q212.11 21.34 212.11 23.61L212.11 23.61Q212.11 36.73 204.92 39L204.92 39Q203.52 39.39 202.03 39.39L202.03 39.39Q194.14 39.39 192.11 30.01L192.11 30.01Q191.56 27.28 191.56 23.92 zM202.03 6.58L202.03 6.58Q194.53 6.58 189.53 11.73L189.53 11.73Q184.92 16.50 184.92 23.61L184.92 23.61Q184.92 33.45 192.11 38.37L192.11 38.37Q196.48 41.34 201.80 41.34L201.80 41.34Q209.30 41.34 214.22 36.03L214.22 36.03Q218.75 31.18 218.75 23.92L218.75 23.92Q218.75 14.08 211.48 9.31L211.48 9.31Q207.19 6.58 202.03 6.58" transform="matrix(1,0,0,1,-220.27499389648438,-20.27899932861328)" style="transform:matrix(1, 0, 0, 1, -220.275, -20.279);;animation:none"></path></g>
<g class="path" style="animation-duration:1s;animation-timing-function:linear;animation-delay:-0.253846s;animation-iteration-count:infinite;animation-direction:normal;animation-fill-mode:forwards;animation-play-state:paused;animation-name:animate-0n10psjolbbk;animation-timeline:auto;animation-range-start:normal;animation-range-end:normal;transform-box:view-box;transform-origin:39.26px -3.16px;transform:matrix(1, 0, 0, 1, 0, 0);;animation:none"><path d="M248.59 40.56L270.08 40.56Q270.08 38.84 268.83 38.61L268.83 38.61Q268.44 38.53 268.05 38.53L268.05 38.53L262.73 38.53L262.73-4.28L267.27-4.28Q273.59-4.28 275.70 3.37L275.70 3.37Q275.70 3.68 275.78 3.84L275.78 3.84L277.03 9.08L279.22 9.08L278.83-6.32L240.23-6.32L239.84 9.08L242.03 9.08L243.28 3.84Q245.78-3.82 251.80-4.28L251.80-4.28L256.02-4.28L256.02 38.53L248.59 38.53L248.59 40.56" transform="matrix(1,0,0,1,-220.27499389648438,-20.27899932861328)" style="transform:matrix(1, 0, 0, 1, -220.275, -20.279);;animation:none"></path></g>
<g class="path" style="animation-duration:1s;animation-timing-function:linear;animation-delay:-0.203077s;animation-iteration-count:infinite;animation-direction:normal;animation-fill-mode:forwards;animation-play-state:paused;animation-name:animate-0n10psjolbbk;animation-timeline:auto;animation-range-start:normal;animation-range-end:normal;transform-box:view-box;transform-origin:78.09px 3.45px;transform:matrix(1, 0, 0, 1, 0, 0);;animation:none"><path d="M301.80 38.61L301.80 38.61L296.17 38.61L296.17 23.06Q296.17 15.95 300.55 11.65L300.55 11.65Q302.27 10.01 303.44 9.93L303.44 9.93Q304.77 9.93 305.86 11.89L305.86 11.89Q307.11 14.08 308.20 14.39L308.20 14.39Q308.67 14.54 309.14 14.54L309.14 14.54Q311.48 14.54 312.11 12.28L312.11 12.28Q312.27 11.81 312.27 11.34L312.27 11.34Q312.27 7.83 308.67 7.04L308.67 7.04Q307.89 6.89 307.19 6.89L307.19 6.89Q302.50 6.89 298.83 10.87L298.83 10.87Q297.11 12.75 296.09 15.09L296.09 15.09L295.78 7.36L284.45 7.36L284.45 9.31L290.31 9.31L290.31 33.92Q290.31 37.51 288.28 38.22L288.28 38.22Q287.11 38.61 284.45 38.61L284.45 38.61L284.45 40.56L303.75 40.56Q303.75 38.84 302.58 38.68L302.58 38.68Q302.27 38.61 301.80 38.61" transform="matrix(1,0,0,1,-220.27499389648438,-20.27899932861328)" style="transform:matrix(1, 0, 0, 1, -220.275, -20.279);;animation:none"></path></g>
<g class="path" style="animation-duration:1s;animation-timing-function:linear;animation-delay:-0.152308s;animation-iteration-count:infinite;animation-direction:normal;animation-fill-mode:forwards;animation-play-state:paused;animation-name:animate-0n10psjolbbk;animation-timeline:auto;animation-range-start:normal;animation-range-end:normal;transform-box:view-box;transform-origin:112.38px 3.68px;transform:matrix(1, 0, 0, 1, 0, 0);;animation:none"><path d="M343.20 41.34L343.20 41.34Q349.22 41.34 349.84 34.08L349.84 34.08Q349.92 33.61 349.92 33.22L349.92 33.22L347.89 33.14Q347.34 38.84 344.84 38.92L344.84 38.92Q342.81 38.76 342.73 34.86L342.73 34.86L342.73 18.37Q342.73 7.20 331.56 6.58L331.56 6.58Q330.86 6.58 330.16 6.58L330.16 6.58Q321.41 6.58 318.44 10.64L318.44 10.64Q317.50 11.97 317.50 13.29L317.50 13.29Q317.50 15.72 319.77 16.11L319.77 16.11Q320.16 16.18 320.55 16.18L320.55 16.18Q322.34 16.18 323.20 13.92L323.20 13.92Q324.30 11.03 324.69 10.48L324.69 10.48Q326.17 8.53 329.30 8.53L329.30 8.53Q336.64 9 336.88 16.58L336.88 16.58L336.88 21.50Q318.52 21.50 315.86 29.15L315.86 29.15Q315.39 30.64 315.39 32.36L315.39 32.36Q315.39 38.29 320.63 40.48L320.63 40.48Q322.73 41.34 325.08 41.34L325.08 41.34Q330.78 41.34 334.69 37.43L334.69 37.43Q336.09 35.95 336.80 34.31L336.80 34.31Q337.73 41.26 343.20 41.34 zM327.66 38.22L327.66 38.22Q322.89 38.22 321.80 33.45L321.80 33.45Q321.56 32.36 321.56 31.03L321.56 31.03Q321.56 25.79 327.58 24.39L327.58 24.39Q330.78 23.68 336.88 23.61L336.88 23.61L336.88 29.86Q335.70 35.25 331.17 37.43L331.17 37.43Q329.38 38.22 327.66 38.22" transform="matrix(1,0,0,1,-220.27499389648438,-20.27899932861328)" style="transform:matrix(1, 0, 0, 1, -220.275, -20.279);;animation:none"></path></g>
<g class="path" style="animation-duration:1s;animation-timing-function:linear;animation-delay:-0.101538s;animation-iteration-count:infinite;animation-direction:normal;animation-fill-mode:forwards;animation-play-state:paused;animation-name:animate-0n10psjolbbk;animation-timeline:auto;animation-range-start:normal;animation-range-end:normal;transform-box:view-box;transform-origin:148.16px 3.88px;transform:matrix(1, 0, 0, 1, 0, 0);;animation:none"><path d="M360.23 9.31L365.70 9.31L365.70 7.36L350.55 7.36L350.55 9.31L354.06 9.31L363.59 35.48Q365.16 39.86 367.03 40.56L367.03 40.56Q367.97 40.95 369.38 40.95L369.38 40.95L370.39 40.95L381.41 12.04Q382.34 9.62 383.67 9.39L383.67 9.39Q384.06 9.31 384.38 9.31L384.38 9.31Q386.09 9.31 386.25 8.14L386.25 8.14Q386.33 7.75 386.33 7.36L386.33 7.36L374.30 7.36L374.30 9.31L380.16 9.31L370.23 35.95L360.23 9.31" transform="matrix(1,0,0,1,-220.27499389648438,-20.27899932861328)" style="transform:matrix(1, 0, 0, 1, -220.275, -20.279);;animation:none"></path></g>
<g class="path" style="animation-duration:1s;animation-timing-function:linear;animation-delay:-0.0507692s;animation-iteration-count:infinite;animation-direction:normal;animation-fill-mode:forwards;animation-play-state:paused;animation-name:animate-0n10psjolbbk;animation-timeline:auto;animation-range-start:normal;animation-range-end:normal;transform-box:view-box;transform-origin:184.61px 3.68px;transform:matrix(1, 0, 0, 1, 0, 0);;animation:none"><path d="M406.02 8.53L406.02 8.53Q411.48 8.53 413.28 13.14L413.28 13.14Q413.91 14.62 413.91 16.34L413.91 16.34Q413.91 20.25 410.16 21.11L410.16 21.11Q408.20 21.50 404.61 21.42L404.61 21.42L396.33 21.18Q396.72 12.20 402.19 9.47L402.19 9.47Q403.98 8.53 406.02 8.53 zM419.61 33.06L419.61 33.06L417.66 32.36Q414.92 38.29 408.83 39.08L408.83 39.08Q408.05 39.15 407.34 39.15L407.34 39.15Q399.14 39.15 397.03 29.39L397.03 29.39Q396.41 26.65 396.33 23.37L396.33 23.37L405.70 23.53Q415.23 23.68 417.97 21.73L417.97 21.73Q420.08 20.17 420.08 17.28L420.08 17.28Q420.08 11.97 414.69 8.84L414.69 8.84Q410.86 6.58 405.86 6.58L405.86 6.58Q396.09 6.58 391.88 14.70L391.88 14.70Q389.69 18.92 389.69 24.23L389.69 24.23Q389.69 33.92 396.64 38.61L396.64 38.61Q400.78 41.34 406.09 41.34L406.09 41.34Q414.53 41.34 418.52 35.25L418.52 35.25Q419.14 34.15 419.61 33.06" transform="matrix(1,0,0,1,-220.27499389648438,-20.27899932861328)" style="transform:matrix(1, 0, 0, 1, -220.275, -20.279);;animation:none"></path></g>
<g class="path" style="animation-duration:1s;animation-timing-function:linear;animation-delay:0s;animation-iteration-count:infinite;animation-direction:normal;animation-fill-mode:forwards;animation-play-state:paused;animation-name:animate-0n10psjolbbk;animation-timeline:auto;animation-range-start:normal;animation-range-end:normal;transform-box:view-box;transform-origin:214.06px -5.11px;transform:matrix(1, 0, 0, 1, 0, 0);;animation:none"><path d="M441.33 38.61L441.33 38.61L437.11 38.61L437.11-10.22L425.39-10.22L425.39-8.27L431.25-8.27L431.25 33.92Q431.25 37.51 429.22 38.22L429.22 38.22Q428.05 38.61 425.39 38.61L425.39 38.61L425.39 40.56L443.28 40.56Q443.28 38.84 442.11 38.68L442.11 38.68Q441.80 38.61 441.33 38.61" transform="matrix(1,0,0,1,-220.27499389648438,-20.27899932861328)" style="transform:matrix(1, 0, 0, 1, -220.275, -20.279);;animation:none"></path></g></g>
<text dy="0.35em" fill="#000000" font-family="Abhaya Libre" font-size="80" style="fill:rgb(0, 0, 0);opacity:0;;animation:none">Trip to Travel</text></g></g>
<STYLE type="text/css">@keyframes animate-0n10psjolbbk { 0.00% {animation-timing-function: cubic-bezier(0.33,0.00,0.67,0.00);transform: translate(0.00px,0.00px) rotate(0.00deg) scale(1.00, 1.00) skew(0deg, 0.00deg) ;opacity: 1.00;}50.00% {animation-timing-function: cubic-bezier(0.33,0.00,0.67,0.00);transform: translate(0.00px,0.00px) rotate(0.00deg) ;}100.00% {animation-timing-function: cubic-bezier(0.33,0.00,0.67,0.00);transform: translate(0.00px,0.00px) rotate(0.00deg) ;} }</STYLE><!-- [ldio] generated by https://loading.io --></svg>