<svg xml:space="preserve" viewBox="0 0 100 100" y="0" x="0" xmlns="http://www.w3.org/2000/svg" id="圖層_1" version="1.1" style="margin: initial; display: block; shape-rendering: auto; background: transparent;" preserveAspectRatio="xMidYMid" width="200" height="200"><g class="ldl-scale" style="transform-origin: 50% 50%; transform: rotate(0deg) scale(0.8, 0.8);"><g class="ldl-ani"><linearGradient y2="45.354" x2="50" y1="78.411" x1="50" gradientUnits="userSpaceOnUse" id="SVGID_1_"><stop stop-color="#849b87" offset="0" style="stroke-width: 0.5; stop-color: rgb(132, 155, 135);"></stop><stop stop-color="#f8b26a" offset="1" style="stroke-width: 0.5; stop-color: rgb(169, 240, 108);"></stop></linearGradient><g class="ldl-layer"><g class="ldl-ani" style="transform-box: view-box; opacity: 1; transform-origin: 50px 50px; transform: matrix3d(1, 0, 0, 0, 0, 1, 0, 0, 0, 0, 1, 0, 0, 0, 0, 1); animation: 3.33333s linear -3.33333s infinite normal forwards running animate;"><path stroke-miterlimit="10" stroke-linecap="round" stroke-width="3.5" stroke="#333" fill="url(#SVGID_1_)" d="M88.7 80H11.3c-2.1 0-3.8-1.7-3.8-3.8V23.8c0-2.1 1.7-3.8 3.8-3.8h77.4c2.1 0 3.8 1.7 3.8 3.8v52.4c0 2.1-1.7 3.8-3.8 3.8z" style="stroke-width: 1.75; stroke: rgb(51, 51, 51);"></path></g></g><g class="ldl-layer"><g class="ldl-ani" style="transform-box: view-box; opacity: 1; transform-origin: 50px 50px; transform: matrix3d(1, 0, 0, 0, 0, 1, 0, 0, 0, 0, 1, 0, 0, 0, 0, 1); animation: 3.33333s linear -3s infinite normal forwards running animate;"><path d="M7.5 45.4h85" stroke-miterlimit="10" stroke-linecap="round" stroke-width="3.5" stroke="#333" fill="none" style="stroke-width: 1.75; stroke: rgb(51, 51, 51);"></path></g></g><linearGradient y2="20.567" x2="50" y1="37.87" x1="50" gradientUnits="userSpaceOnUse" id="SVGID_2_"><stop stop-color="#f47e60" offset="0" style="stroke-width: 0.5; stop-color: rgb(253, 243, 139);"></stop><stop stop-color="#e15b64" offset="1" style="stroke-width: 0.5; stop-color: rgb(168, 242, 232);"></stop></linearGradient><g class="ldl-layer"><g class="ldl-ani" style="transform-box: view-box; opacity: 1; transform-origin: 50px 50px; transform: matrix3d(1, 0, 0, 0, 0, 1, 0, 0, 0, 0, 1, 0, 0, 0, 0, 1); animation: 3.33333s linear -2.66667s infinite normal forwards running animate;"><path stroke-miterlimit="10" stroke-linecap="round" stroke-width="3.5" stroke="#333" fill="url(#SVGID_2_)" d="M92.5 45.4h-85V23.8c0-2.1 1.7-3.8 3.8-3.8h77.4c2.1 0 3.8 1.7 3.8 3.8v21.6z" style="stroke-width: 1.75; stroke: rgb(51, 51, 51);"></path></g></g><linearGradient y2="66.535" x2="49.075" y1="50.781" x1="49.075" gradientUnits="userSpaceOnUse" id="SVGID_3_"><stop stop-color="#a0c8d7" offset="0" style="stroke-width: 0.5; stop-color: rgb(160, 200, 215);"></stop><stop stop-color="#77a4bd" offset="1" style="stroke-width: 0.5; stop-color: rgb(119, 164, 189);"></stop></linearGradient><g class="ldl-layer"><g class="ldl-ani" style="transform-box: view-box; opacity: 1; transform-origin: 50px 50px; transform: matrix3d(1, 0, 0, 0, 0, 1, 0, 0, 0, 0, 1, 0, 0, 0, 0, 1); animation: 3.33333s linear -2.33333s infinite normal forwards running animate;"><path stroke-miterlimit="10" stroke-width="3.5" stroke="#333" stroke-linecap="round" fill="url(#SVGID_3_)" d="M71.3 67.5c.2-2.9-2-5.5-4.5-7s-5.4-2.4-7.7-4.2C57.4 55 56 53.2 56 51.1c0-2.7 1.4-4.1 3.5-5.8h-8.1c-2.7 1.1-3.7 1.5-5.7 3.6s-3 5.5-1.5 8c.7 1.1 1.8 2 2 3.3.2 1.6-1 2.9-2.2 4-5.7 5.5-11.4 10.4-17.1 15.8h38.6c1.5-2.7 2.7-5.7 4.2-8.4.7-1.3 1.5-2.7 1.6-4.1z" style="stroke-width: 1.75; stroke: rgb(51, 51, 51);"></path></g></g><g class="ldl-layer"><g class="ldl-ani" style="transform-box: view-box; opacity: 1; transform-origin: 50px 50px; transform: matrix3d(1, 0, 0, 0, 0, 1, 0, 0, 0, 0, 1, 0, 0, 0, 0, 1); animation: 3.33333s linear -2s infinite normal forwards running animate;"><path stroke-miterlimit="10" stroke-linecap="round" stroke-width="3.5" stroke="#333" fill="#f5e6c8" d="M41.9 45.4c.8-1.4 1.2-3.1 1.2-4.8 0-5.7-4.6-10.3-10.3-10.3s-10.3 4.6-10.3 10.3c0 1.8.4 3.4 1.2 4.8h18.2z" style="stroke-width: 1.75; fill: rgb(255, 194, 28); stroke: rgb(51, 51, 51);"></path></g></g><metadata xmlns:d="https://loading.io/stock/"></metadata></g></g><style type="text/css">@keyframes animate { 0.00% {animation-timing-function: cubic-bezier(0.43,0.05,0.82,0.66);transform: translate(0.00px,0.00px) rotate(0.00deg) scale(1.00, 1.00) skew(0deg, 0.00deg) ;opacity: 1.00;}46.00% {transform: translate(154.49px,0.00px) rotate(0.00deg) ;opacity: 1.00;}48.00% {transform: translate(169.87px,0.00px) rotate(0.00deg) ;opacity: 0.00;}50.00% {transform: translate(-200.00px,0.00px) rotate(0.00deg) ;opacity: 0.00;}52.00% {transform: translate(-169.87px,0.00px) rotate(0.00deg) ;opacity: 0.00;}54.00% {animation-timing-function: cubic-bezier(0.20,0.37,0.57,0.88);transform: translate(-154.49px,0.00px) rotate(0.00deg) ;opacity: 1.00;}100.00% {animation-timing-function: cubic-bezier(0.20,0.37,0.57,0.88);transform: translate(0.00px,0.00px) rotate(0.00deg) ;opacity: 1.00;} }</style><!-- [ldio] generated by https://loading.io --></svg>