<svg width="21" height="21" viewBox="0 0 21 21" fill="none" xmlns="http://www.w3.org/2000/svg">
<path d="M18.4647 2.41713C18.5941 2.28506 18.7486 2.18015 18.9191 2.10852C19.0896 2.03689 19.2727 2 19.4576 2C19.6425 2 19.8256 2.03689 19.9961 2.10852C20.1665 2.18015 20.321 2.28506 20.4505 2.41713C20.9929 2.96526 21.0005 3.85099 20.4694 4.4086L9.25462 17.6661C9.12729 17.8059 8.97278 17.9183 8.80053 17.9963C8.62827 18.0744 8.44191 18.1165 8.25283 18.12C8.06375 18.1236 7.87594 18.0885 7.70088 18.017C7.52582 17.9455 7.36719 17.839 7.2347 17.704L0.410606 10.7889C0.147424 10.5205 0 10.1596 0 9.78367C0 9.40777 0.147424 9.04685 0.410606 8.77845C0.540044 8.64638 0.69453 8.54146 0.865019 8.46984C1.03551 8.39821 1.21857 8.36132 1.4035 8.36132C1.58842 8.36132 1.77148 8.39821 1.94197 8.46984C2.11246 8.54146 2.26695 8.64638 2.39638 8.77845L8.18492 14.6447L18.4268 2.45886L18.4647 2.41713Z" fill="black"/>
</svg>
