<svg width="21" height="21" viewBox="0 0 21 21" fill="none" xmlns="http://www.w3.org/2000/svg">
<g clip-path="url(#clip0_183_6667)">
<path d="M16 10.5C16 10.8024 15.9034 11.0806 15.6994 11.2984L7.18558 20.6855C7.00307 20.8911 6.76687 21 6.48773 21C5.92945 21 5.5 20.5282 5.5 19.8992C5.5 19.5968 5.6181 19.3185 5.78988 19.1129L13.6058 10.5L5.78988 1.8871C5.6181 1.68145 5.5 1.41532 5.5 1.10081C5.5 0.471772 5.92945 -8.80396e-07 6.48773 -8.31589e-07C6.76687 -8.07186e-07 7.00307 0.108871 7.18558 0.326612L15.6994 9.70161C15.9034 9.93145 16 10.1976 16 10.5Z" fill="black"/>
</g>
<defs>
<clipPath id="clip0_183_6667">
<rect width="21" height="21" fill="white"/>
</clipPath>
</defs>
</svg>
