<svg width="21" height="21" viewBox="0 0 21 21" fill="none" xmlns="http://www.w3.org/2000/svg">
<g clip-path="url(#clip0_183_6670)">
<path fill-rule="evenodd" clip-rule="evenodd" d="M20.235 20.2351C19.8126 20.6576 19.1277 20.6576 18.7053 20.2351L0.764852 2.29459C0.342435 1.87217 0.342435 1.18729 0.764852 0.76487C1.18727 0.342445 1.87216 0.342445 2.29458 0.76487L20.235 18.7054C20.6574 19.1278 20.6574 19.8127 20.235 20.2351Z" fill="black"/>
<path fill-rule="evenodd" clip-rule="evenodd" d="M0.765017 20.2351C1.18744 20.6576 1.87232 20.6576 2.29474 20.2351L20.2351 2.29459C20.6576 1.87217 20.6576 1.18729 20.2351 0.76487C19.8127 0.342445 19.1278 0.342445 18.7054 0.76487L0.765017 18.7054C0.3426 19.1278 0.3426 19.8127 0.765017 20.2351Z" fill="black"/>
</g>
<defs>
<clipPath id="clip0_183_6670">
<rect width="21" height="21" fill="white"/>
</clipPath>
</defs>
</svg>
