<svg width="161" height="28" viewBox="0 0 161 28" fill="none" xmlns="http://www.w3.org/2000/svg">
<path d="M16.5322 1.13672L16.752 5.79492H16.1953C16.0879 4.97461 15.9414 4.38867 15.7559 4.03711C15.4531 3.4707 15.0479 3.05566 14.54 2.79199C14.042 2.51855 13.3828 2.38184 12.5625 2.38184H9.76465V17.5576C9.76465 18.7783 9.89648 19.54 10.1602 19.8428C10.5312 20.2529 11.1025 20.458 11.874 20.458H12.5625V21H4.13965V20.458H4.84277C5.68262 20.458 6.27832 20.2041 6.62988 19.6963C6.84473 19.3838 6.95215 18.6709 6.95215 17.5576V2.38184H4.56445C3.63672 2.38184 2.97754 2.4502 2.58691 2.58691C2.0791 2.77246 1.64453 3.12891 1.2832 3.65625C0.921875 4.18359 0.707031 4.89648 0.638672 5.79492H0.0820312L0.316406 1.13672H16.5322ZM21.3223 7.18652V10.2041C22.4453 8.19238 23.5977 7.18652 24.7793 7.18652C25.3164 7.18652 25.7607 7.35254 26.1123 7.68457C26.4639 8.00684 26.6396 8.38281 26.6396 8.8125C26.6396 9.19336 26.5127 9.51562 26.2588 9.7793C26.0049 10.043 25.7021 10.1748 25.3506 10.1748C25.0088 10.1748 24.623 10.0088 24.1934 9.67676C23.7734 9.33496 23.4609 9.16406 23.2559 9.16406C23.0801 9.16406 22.8896 9.26172 22.6846 9.45703C22.2451 9.85742 21.791 10.5166 21.3223 11.4346V17.8652C21.3223 18.6074 21.415 19.1689 21.6006 19.5498C21.7275 19.8135 21.9521 20.0332 22.2744 20.209C22.5967 20.3848 23.0605 20.4727 23.666 20.4727V21H16.7959V20.4727C17.4795 20.4727 17.9873 20.3652 18.3193 20.1504C18.5635 19.9941 18.7344 19.7451 18.832 19.4033C18.8809 19.2373 18.9053 18.7637 18.9053 17.9824V12.7822C18.9053 11.2197 18.8711 10.292 18.8027 9.99902C18.7441 9.69629 18.627 9.47656 18.4512 9.33984C18.2852 9.20312 18.0752 9.13477 17.8213 9.13477C17.5186 9.13477 17.1768 9.20801 16.7959 9.35449L16.6494 8.82715L20.707 7.18652H21.3223ZM30.7998 0.169922C31.21 0.169922 31.5566 0.316406 31.8398 0.609375C32.1328 0.892578 32.2793 1.23926 32.2793 1.64941C32.2793 2.05957 32.1328 2.41113 31.8398 2.7041C31.5566 2.99707 31.21 3.14355 30.7998 3.14355C30.3896 3.14355 30.0381 2.99707 29.7451 2.7041C29.4521 2.41113 29.3057 2.05957 29.3057 1.64941C29.3057 1.23926 29.4473 0.892578 29.7305 0.609375C30.0234 0.316406 30.3799 0.169922 30.7998 0.169922ZM32.0156 7.18652V17.9678C32.0156 18.8076 32.0742 19.3691 32.1914 19.6523C32.3184 19.9258 32.499 20.1309 32.7334 20.2676C32.9775 20.4043 33.417 20.4727 34.0518 20.4727V21H27.5332V20.4727C28.1875 20.4727 28.627 20.4092 28.8516 20.2822C29.0762 20.1553 29.252 19.9453 29.3789 19.6523C29.5156 19.3594 29.584 18.7979 29.584 17.9678V12.7969C29.584 11.3418 29.54 10.3994 29.4521 9.96973C29.3838 9.65723 29.2764 9.44238 29.1299 9.3252C28.9834 9.19824 28.7832 9.13477 28.5293 9.13477C28.2559 9.13477 27.9238 9.20801 27.5332 9.35449L27.3281 8.82715L31.3711 7.18652H32.0156ZM34.7695 8.91504L38.9004 7.24512H39.457V10.3799C40.1504 9.19824 40.8438 8.37305 41.5371 7.9043C42.2402 7.42578 42.9775 7.18652 43.749 7.18652C45.0967 7.18652 46.2197 7.71387 47.1182 8.76855C48.2217 10.0576 48.7734 11.7373 48.7734 13.8076C48.7734 16.1221 48.1094 18.0361 46.7812 19.5498C45.6875 20.79 44.3105 21.4102 42.6504 21.4102C41.9277 21.4102 41.3027 21.3076 40.7754 21.1025C40.3848 20.9561 39.9453 20.6631 39.457 20.2236V24.3105C39.457 25.2285 39.5107 25.8096 39.6182 26.0537C39.7354 26.3076 39.9307 26.5078 40.2041 26.6543C40.4873 26.8008 40.9951 26.874 41.7275 26.874V27.416H34.6963V26.874H35.0625C35.5996 26.8838 36.0586 26.7812 36.4395 26.5664C36.625 26.459 36.7666 26.2832 36.8643 26.0391C36.9717 25.8047 37.0254 25.1992 37.0254 24.2227V11.5371C37.0254 10.668 36.9863 10.1162 36.9082 9.88184C36.8301 9.64746 36.7031 9.47168 36.5273 9.35449C36.3613 9.2373 36.1318 9.17871 35.8389 9.17871C35.6045 9.17871 35.3066 9.24707 34.9453 9.38379L34.7695 8.91504ZM39.457 11.2441V16.2539C39.457 17.3379 39.501 18.0508 39.5889 18.3926C39.7256 18.959 40.0576 19.457 40.585 19.8867C41.1221 20.3164 41.7959 20.5312 42.6064 20.5312C43.583 20.5312 44.374 20.1504 44.9795 19.3887C45.7705 18.3926 46.166 16.9912 46.166 15.1846C46.166 13.1338 45.7168 11.5566 44.8184 10.4531C44.1934 9.69141 43.4512 9.31055 42.5918 9.31055C42.123 9.31055 41.6592 9.42773 41.2002 9.66211C40.8486 9.83789 40.2676 10.3652 39.457 11.2441ZM64.1113 8.27344V10.2656H61.5098V17.25C61.5098 18.6797 62.2363 18.9375 63.0332 18.9609C63.3848 18.9609 63.9473 18.9141 64.2988 18.8906V21.0703C63.9473 21.1172 63.4082 21.1641 62.7285 21.1641C60.7598 21.1641 59.002 20.0859 59.0254 17.7656V10.2656H57.1504V8.27344H59.0254V5.22656H61.5098V8.27344H64.1113ZM71.7988 21.2578C68.1895 21.2578 65.8457 18.6328 65.8457 14.6953C65.8457 10.7344 68.1895 8.10938 71.7988 8.10938C75.3848 8.10938 77.7285 10.7344 77.7285 14.6953C77.7285 18.6328 75.3848 21.2578 71.7988 21.2578ZM71.7988 19.1719C74.0957 19.1719 75.1973 17.1328 75.1973 14.6953C75.1973 12.2578 74.0957 10.1719 71.7988 10.1719C69.4551 10.1719 68.3535 12.2578 68.3535 14.6953C68.3535 17.1328 69.4551 19.1719 71.7988 19.1719ZM85.5645 3.80078V1.20312H100.904V3.80078H94.752V21H91.7441V3.80078H85.5645ZM102.162 21V6.15234H104.979V8.50391H105.143C105.689 6.91797 107.166 5.93359 108.916 5.93359C109.271 5.93359 109.846 5.96094 110.146 5.98828V8.77734C109.9 8.72266 109.217 8.61328 108.615 8.61328C106.592 8.61328 105.088 10.0078 105.088 11.9492V21H102.162ZM111.486 16.8164C111.486 13.4258 114.357 12.5508 117.037 12.3594C118.021 12.291 120.25 12.168 120.947 12.1406L120.92 10.9648C120.92 9.29688 119.908 8.3125 117.912 8.3125C116.189 8.3125 115.15 9.10547 114.85 10.1992H111.951C112.225 7.73828 114.521 5.96094 118.021 5.96094C120.373 5.96094 123.846 6.83594 123.846 11.1289V21H121.002V18.9766H120.893C120.318 20.0977 118.951 21.3281 116.49 21.3281C113.674 21.3281 111.486 19.7148 111.486 16.8164ZM114.33 16.8438C114.33 18.2656 115.506 19.0039 117.146 19.0039C119.525 19.0039 120.947 17.418 120.947 15.6406V14.2734L117.447 14.5195C115.533 14.6562 114.33 15.3672 114.33 16.8438ZM139.568 6.15234L134.182 21H131.037L125.65 6.15234H128.795L132.541 17.5547H132.678L136.424 6.15234H139.568ZM147.826 21.3008C143.451 21.3008 140.771 18.293 140.771 13.6719C140.771 9.10547 143.506 5.96094 147.635 5.96094C151.025 5.96094 154.225 8.06641 154.225 13.4258V14.4648H143.67C143.752 17.2812 145.406 18.8945 147.854 18.8945C149.521 18.8945 150.588 18.1836 151.08 17.2812H154.033C153.377 19.6875 151.08 21.3008 147.826 21.3008ZM143.697 12.2773H151.354C151.354 10.0078 149.904 8.36719 147.662 8.36719C145.324 8.36719 143.807 10.1719 143.697 12.2773ZM160.049 1.20312V21H157.123V1.20312H160.049Z" fill="black"/>
</svg>
