<svg width="163" height="30" viewBox="0 0 163 30" fill="none" xmlns="http://www.w3.org/2000/svg">
<path d="M17.5322 2.13672L17.752 6.79492H17.1953C17.0879 5.97461 16.9414 5.38867 16.7559 5.03711C16.4531 4.4707 16.0479 4.05566 15.54 3.79199C15.042 3.51855 14.3828 3.38184 13.5625 3.38184H10.7646V18.5576C10.7646 19.7783 10.8965 20.54 11.1602 20.8428C11.5312 21.2529 12.1025 21.458 12.874 21.458H13.5625V22H5.13965V21.458H5.84277C6.68262 21.458 7.27832 21.2041 7.62988 20.6963C7.84473 20.3838 7.95215 19.6709 7.95215 18.5576V3.38184H5.56445C4.63672 3.38184 3.97754 3.4502 3.58691 3.58691C3.0791 3.77246 2.64453 4.12891 2.2832 4.65625C1.92188 5.18359 1.70703 5.89648 1.63867 6.79492H1.08203L1.31641 2.13672H17.5322ZM22.3223 8.18652V11.2041C23.4453 9.19238 24.5977 8.18652 25.7793 8.18652C26.3164 8.18652 26.7607 8.35254 27.1123 8.68457C27.4639 9.00684 27.6396 9.38281 27.6396 9.8125C27.6396 10.1934 27.5127 10.5156 27.2588 10.7793C27.0049 11.043 26.7021 11.1748 26.3506 11.1748C26.0088 11.1748 25.623 11.0088 25.1934 10.6768C24.7734 10.335 24.4609 10.1641 24.2559 10.1641C24.0801 10.1641 23.8896 10.2617 23.6846 10.457C23.2451 10.8574 22.791 11.5166 22.3223 12.4346V18.8652C22.3223 19.6074 22.415 20.1689 22.6006 20.5498C22.7275 20.8135 22.9521 21.0332 23.2744 21.209C23.5967 21.3848 24.0605 21.4727 24.666 21.4727V22H17.7959V21.4727C18.4795 21.4727 18.9873 21.3652 19.3193 21.1504C19.5635 20.9941 19.7344 20.7451 19.832 20.4033C19.8809 20.2373 19.9053 19.7637 19.9053 18.9824V13.7822C19.9053 12.2197 19.8711 11.292 19.8027 10.999C19.7441 10.6963 19.627 10.4766 19.4512 10.3398C19.2852 10.2031 19.0752 10.1348 18.8213 10.1348C18.5186 10.1348 18.1768 10.208 17.7959 10.3545L17.6494 9.82715L21.707 8.18652H22.3223ZM31.7998 1.16992C32.21 1.16992 32.5566 1.31641 32.8398 1.60938C33.1328 1.89258 33.2793 2.23926 33.2793 2.64941C33.2793 3.05957 33.1328 3.41113 32.8398 3.7041C32.5566 3.99707 32.21 4.14355 31.7998 4.14355C31.3896 4.14355 31.0381 3.99707 30.7451 3.7041C30.4521 3.41113 30.3057 3.05957 30.3057 2.64941C30.3057 2.23926 30.4473 1.89258 30.7305 1.60938C31.0234 1.31641 31.3799 1.16992 31.7998 1.16992ZM33.0156 8.18652V18.9678C33.0156 19.8076 33.0742 20.3691 33.1914 20.6523C33.3184 20.9258 33.499 21.1309 33.7334 21.2676C33.9775 21.4043 34.417 21.4727 35.0518 21.4727V22H28.5332V21.4727C29.1875 21.4727 29.627 21.4092 29.8516 21.2822C30.0762 21.1553 30.252 20.9453 30.3789 20.6523C30.5156 20.3594 30.584 19.7979 30.584 18.9678V13.7969C30.584 12.3418 30.54 11.3994 30.4521 10.9697C30.3838 10.6572 30.2764 10.4424 30.1299 10.3252C29.9834 10.1982 29.7832 10.1348 29.5293 10.1348C29.2559 10.1348 28.9238 10.208 28.5332 10.3545L28.3281 9.82715L32.3711 8.18652H33.0156ZM35.7695 9.91504L39.9004 8.24512H40.457V11.3799C41.1504 10.1982 41.8438 9.37305 42.5371 8.9043C43.2402 8.42578 43.9775 8.18652 44.749 8.18652C46.0967 8.18652 47.2197 8.71387 48.1182 9.76855C49.2217 11.0576 49.7734 12.7373 49.7734 14.8076C49.7734 17.1221 49.1094 19.0361 47.7812 20.5498C46.6875 21.79 45.3105 22.4102 43.6504 22.4102C42.9277 22.4102 42.3027 22.3076 41.7754 22.1025C41.3848 21.9561 40.9453 21.6631 40.457 21.2236V25.3105C40.457 26.2285 40.5107 26.8096 40.6182 27.0537C40.7354 27.3076 40.9307 27.5078 41.2041 27.6543C41.4873 27.8008 41.9951 27.874 42.7275 27.874V28.416H35.6963V27.874H36.0625C36.5996 27.8838 37.0586 27.7812 37.4395 27.5664C37.625 27.459 37.7666 27.2832 37.8643 27.0391C37.9717 26.8047 38.0254 26.1992 38.0254 25.2227V12.5371C38.0254 11.668 37.9863 11.1162 37.9082 10.8818C37.8301 10.6475 37.7031 10.4717 37.5273 10.3545C37.3613 10.2373 37.1318 10.1787 36.8389 10.1787C36.6045 10.1787 36.3066 10.2471 35.9453 10.3838L35.7695 9.91504ZM40.457 12.2441V17.2539C40.457 18.3379 40.501 19.0508 40.5889 19.3926C40.7256 19.959 41.0576 20.457 41.585 20.8867C42.1221 21.3164 42.7959 21.5312 43.6064 21.5312C44.583 21.5312 45.374 21.1504 45.9795 20.3887C46.7705 19.3926 47.166 17.9912 47.166 16.1846C47.166 14.1338 46.7168 12.5566 45.8184 11.4531C45.1934 10.6914 44.4512 10.3105 43.5918 10.3105C43.123 10.3105 42.6592 10.4277 42.2002 10.6621C41.8486 10.8379 41.2676 11.3652 40.457 12.2441ZM65.1113 9.27344V11.2656H62.5098V18.25C62.5098 19.6797 63.2363 19.9375 64.0332 19.9609C64.3848 19.9609 64.9473 19.9141 65.2988 19.8906V22.0703C64.9473 22.1172 64.4082 22.1641 63.7285 22.1641C61.7598 22.1641 60.002 21.0859 60.0254 18.7656V11.2656H58.1504V9.27344H60.0254V6.22656H62.5098V9.27344H65.1113ZM72.7988 22.2578C69.1895 22.2578 66.8457 19.6328 66.8457 15.6953C66.8457 11.7344 69.1895 9.10938 72.7988 9.10938C76.3848 9.10938 78.7285 11.7344 78.7285 15.6953C78.7285 19.6328 76.3848 22.2578 72.7988 22.2578ZM72.7988 20.1719C75.0957 20.1719 76.1973 18.1328 76.1973 15.6953C76.1973 13.2578 75.0957 11.1719 72.7988 11.1719C70.4551 11.1719 69.3535 13.2578 69.3535 15.6953C69.3535 18.1328 70.4551 20.1719 72.7988 20.1719ZM86.5645 4.80078V2.20312H101.904V4.80078H95.752V22H92.7441V4.80078H86.5645ZM103.162 22V7.15234H105.979V9.50391H106.143C106.689 7.91797 108.166 6.93359 109.916 6.93359C110.271 6.93359 110.846 6.96094 111.146 6.98828V9.77734C110.9 9.72266 110.217 9.61328 109.615 9.61328C107.592 9.61328 106.088 11.0078 106.088 12.9492V22H103.162ZM112.486 17.8164C112.486 14.4258 115.357 13.5508 118.037 13.3594C119.021 13.291 121.25 13.168 121.947 13.1406L121.92 11.9648C121.92 10.2969 120.908 9.3125 118.912 9.3125C117.189 9.3125 116.15 10.1055 115.85 11.1992H112.951C113.225 8.73828 115.521 6.96094 119.021 6.96094C121.373 6.96094 124.846 7.83594 124.846 12.1289V22H122.002V19.9766H121.893C121.318 21.0977 119.951 22.3281 117.49 22.3281C114.674 22.3281 112.486 20.7148 112.486 17.8164ZM115.33 17.8438C115.33 19.2656 116.506 20.0039 118.146 20.0039C120.525 20.0039 121.947 18.418 121.947 16.6406V15.2734L118.447 15.5195C116.533 15.6562 115.33 16.3672 115.33 17.8438ZM140.568 7.15234L135.182 22H132.037L126.65 7.15234H129.795L133.541 18.5547H133.678L137.424 7.15234H140.568ZM148.826 22.3008C144.451 22.3008 141.771 19.293 141.771 14.6719C141.771 10.1055 144.506 6.96094 148.635 6.96094C152.025 6.96094 155.225 9.06641 155.225 14.4258V15.4648H144.67C144.752 18.2812 146.406 19.8945 148.854 19.8945C150.521 19.8945 151.588 19.1836 152.08 18.2812H155.033C154.377 20.6875 152.08 22.3008 148.826 22.3008ZM144.697 13.2773H152.354C152.354 11.0078 150.904 9.36719 148.662 9.36719C146.324 9.36719 144.807 11.1719 144.697 13.2773ZM161.049 2.20312V22H158.123V2.20312H161.049Z" fill="black"/>
</svg>
